<?xml version="1.0" standalone="no"?>
<!DOCTYPE svg PUBLIC "-//W3C//DTD SVG 20010904//EN"
 "http://www.w3.org/TR/2001/REC-SVG-20010904/DTD/svg10.dtd">
<svg version="1.0" xmlns="http://www.w3.org/2000/svg"
 width="860.000000pt" height="683.000000pt" viewBox="0 0 860.000000 683.000000"
 preserveAspectRatio="xMidYMid meet">

<g transform="translate(0.000000,683.000000) scale(0.100000,-0.100000)"
fill="#000000" stroke="none">
<path d="M2460 6400 c-466 -65 -943 -345 -1283 -751 -233 -281 -383 -627 -454
-1054 -25 -155 -25 -597 0 -770 153 -1030 772 -2002 1692 -2653 520 -369 1138
-629 1766 -743 l126 -22 139 27 c1031 202 1923 726 2574 1511 198 238 363 494
510 790 184 371 283 678 345 1075 25 161 31 531 11 704 -48 411 -183 762 -414
1073 -133 179 -398 417 -613 550 -181 113 -410 205 -612 245 -162 33 -452 33
-617 0 -423 -84 -861 -328 -1222 -681 l-108 -104 -107 104 c-357 348 -784 588
-1198 675 -94 20 -157 26 -295 29 -96 2 -204 0 -240 -5z m555 -215 c402 -66
819 -289 1170 -627 l115 -110 114 109 c320 308 694 520 1071 609 112 27 134
28 340 29 239 0 280 -6 475 -67 343 -108 728 -389 964 -705 356 -478 476
-1144 330 -1835 -129 -610 -442 -1202 -906 -1709 -98 -107 -277 -280 -298
-287 -5 -2 0 25 11 60 75 247 30 482 -120 621 -68 63 -127 87 -212 87 -146 0
-254 -100 -219 -204 11 -33 51 -76 71 -76 5 0 34 23 64 50 66 59 91 63 157 21
84 -54 127 -187 108 -333 -16 -117 -61 -239 -138 -372 -36 -62 -47 -75 -54
-62 -17 29 -333 883 -609 1645 -55 151 -98 278 -97 283 2 5 40 21 85 37 224
78 388 248 429 445 24 111 -1 247 -60 337 -21 31 -25 53 -31 160 -7 128 -22
249 -32 259 -3 3 -45 -38 -94 -90 l-88 -95 -33 14 c-277 116 -509 116 -786 0
l-33 -14 -85 93 c-47 50 -89 92 -94 92 -10 0 -27 -134 -35 -273 -5 -89 -10
-115 -29 -145 -144 -232 -62 -527 193 -696 66 -44 204 -106 235 -106 9 0 16
-8 16 -19 0 -11 -22 -262 -50 -558 -27 -296 -50 -548 -50 -560 0 -16 17 -34
58 -62 243 -164 393 -422 461 -788 26 -143 35 -255 26 -346 l-7 -75 -59 -26
c-33 -14 -62 -26 -63 -26 -2 0 -6 51 -9 114 -15 259 -82 480 -201 660 -150
228 -327 374 -466 384 -104 8 -182 -34 -225 -118 -36 -72 -35 -138 5 -183 37
-43 99 -62 168 -52 43 6 53 4 71 -14 30 -30 26 -55 -15 -100 -44 -50 -87 -64
-173 -59 -84 4 -186 51 -231 106 -127 154 -114 394 29 545 61 64 125 101 210
121 35 8 65 17 68 20 3 3 -21 35 -55 70 -144 155 -348 407 -473 586 -102 145
-239 392 -289 518 -9 24 -17 31 -29 27 -37 -14 -182 -45 -266 -56 -160 -21
-488 -1 -606 36 -18 6 -19 -26 -19 -1124 0 -799 -3 -1131 -11 -1131 -18 0
-216 139 -344 241 -331 264 -600 555 -829 899 -120 180 -183 289 -272 474
-208 434 -316 885 -317 1326 -1 745 310 1346 901 1744 220 148 477 252 701
285 97 15 369 12 466 -4z m320 -4875 c47 -239 84 -440 83 -447 -2 -8 -32 2
-85 27 l-83 39 0 214 c0 117 -3 303 -6 413 -4 109 -4 197 -1 194 3 -3 45 -201
92 -440z"/>
<path d="M2793 5251 c-39 -11 -90 -29 -114 -41 -68 -35 -143 -113 -175 -183
-26 -55 -29 -73 -29 -159 l0 -98 -357 0 -358 0 0 -29 c0 -74 46 -233 95 -331
136 -271 376 -418 737 -452 l128 -12 0 -86 0 -87 58 -13 c98 -21 304 -24 431
-6 63 9 116 18 118 20 2 2 -21 41 -51 86 -85 127 -147 302 -185 529 -31 182
-25 192 25 41 81 -246 212 -477 325 -573 138 -118 314 -129 403 -25 49 57 67
116 73 238 15 306 -154 699 -411 956 -111 111 -199 169 -318 212 -101 35 -288
42 -395 13z"/>
</g>
</svg>
